<?xml version="1.0" encoding="utf-8"?>
<!-- Generator: Adobe Illustrator 24.1.2, SVG Export Plug-In . SVG Version: 6.00 Build 0)  -->
<svg version="1.1" id="Capa_1" xmlns="http://www.w3.org/2000/svg" xmlns:xlink="http://www.w3.org/1999/xlink" x="0px" y="0px"
	 viewBox="0 0 413.2 481" style="enable-background:new 0 0 413.2 481;" xml:space="preserve">
<style type="text/css">
	.st0{fill:#23B123;}
</style>
<path class="st0" d="M222.8,301.9h-27.5c-10,0-18.1-8.1-18.1-18.1s8.1-18.1,18.1-18.1h48.4c6.6,0,12-5.4,12-12s-5.4-12-12-12H221
	V225c0-6.6-5.4-12-12-12s-12,5.4-12,12v16.7h-1.7c-23.3,0-42.1,18.9-42.1,42.1c0,23.2,18.8,42.1,42.1,42.1h27.5
	c10,0,18.1,8.1,18.1,18.1s-8.1,18.1-18.1,18.1h-49.3c-6.6,0-12,5.4-12,12s5.4,12,12,12h23.6v17.1c0,6.6,5.4,12,12,12s12-5.4,12-12
	v-17.1h2.3c23.3-0.2,42-19.1,41.8-42.4S246.1,301.7,222.8,301.9L222.8,301.9L222.8,301.9z"/>
<path class="st0" d="M389.4,274.7c-13.3-30.1-30.8-58.2-52-83.4c-19.6-23.7-42-44.9-66.6-63.3l51-94.6c2.6-4.7,1.7-10.5-2.2-14.2
	C306.4,6.3,292.4,0,276.8,0c-14.3,0-27.4,5.4-38.8,10.2c-9,3.7-17.5,7.3-24.4,7.3c-1.9,0-3.9-0.3-5.7-1
	c-23.8-8.7-42.1-14.1-59.8-14.1c-22.4,0-41.5,9-60.2,28.2c-3.9,4.1-4.5,10.3-1.4,15l55,83.1C117.3,147,95.2,168,75.8,191.3
	c-21.9,26.3-39.4,54.4-52,83.4C8.2,310.4,0.1,348.9,0,387.9c0.1,51.4,41.7,93,93.1,93.1h227c51.4-0.1,93-41.7,93.1-93.1
	C413.1,348.9,405,310.4,389.4,274.7z M112.1,40.6c11.6-10,22.7-14.4,36-14.4c14.2,0,30.2,4.8,51.5,12.7c4.5,1.6,9.2,2.4,13.9,2.4
	c11.7,0,22.9-4.6,33.6-9.1c10.3-4.3,20.1-8.4,29.6-8.4c4.6,0,11.1,0.8,19.3,6.6l-48,89.2h-83.6L112.1,40.6z M320.1,457h-227
	C55,457,24,426,24,387.9c0-64.1,23.5-124.9,69.7-180.7c19.8-24,42.7-45.4,67.9-63.6h89.8c9.1,6.3,38.7,28.3,67.9,63.6
	C365.6,263,389,323.7,389,387.9c0.1,38-30.6,69-68.7,69.1C320.3,457,320.2,457,320.1,457z"/>
</svg>
