<?xml version="1.0" encoding="utf-8"?>
<!-- Generator: Adobe Illustrator 24.1.2, SVG Export Plug-In . SVG Version: 6.00 Build 0)  -->
<svg version="1.1" id="Capa_1" xmlns="http://www.w3.org/2000/svg" xmlns:xlink="http://www.w3.org/1999/xlink" x="0px" y="0px"
	 viewBox="0 0 486 445.8" style="enable-background:new 0 0 486 445.8;" xml:space="preserve">
<style type="text/css">
	.st0{fill:#23B123;}
</style>
<path class="st0" d="M420.7,65.3c-87-87-228.1-87.1-315.2,0c-0.7,0.7-1.4,1.4-2,2c-4.6,4.7-4.5,12.4,0.2,17s12.4,4.5,17-0.2
	c37.3-38.5,88.8-60.2,142.4-60C372.8,24,462,113.2,462,222.9s-89.2,198.9-198.9,198.9S64.2,332.6,64.2,222.9v-2.5L84,240.2
	c2.3,2.2,5.3,3.5,8.5,3.5c3.2,0,6.2-1.3,8.5-3.5c4.7-4.7,4.7-12.3,0-17c0,0,0,0,0,0l-40.2-40.3c-4.7-4.7-12.3-4.7-17,0c0,0,0,0,0,0
	L3.5,223.2c-4.7,4.7-4.7,12.3,0,17c4.7,4.7,12.3,4.7,17,0l0,0l19.8-19.8v2.5c0,123.1,99.8,222.9,222.9,222.9
	c59.1,0,115.8-23.5,157.6-65.3C507.8,293.4,507.7,152.3,420.7,65.3L420.7,65.3z"/>
<path class="st0" d="M326.9,141.8L179.5,289.1c-4.7,4.7-4.7,12.3,0,17c2.3,2.3,5.3,3.5,8.5,3.5c3.2,0,6.2-1.3,8.5-3.5l147.4-147.4
	c4.9-4.5,5.2-12.1,0.8-17c-4.5-4.9-12.1-5.2-17-0.8C327.5,141.2,327.2,141.5,326.9,141.8L326.9,141.8z"/>
<path class="st0" d="M288.3,241c-16.8,16.8-16.8,44,0,60.8c16.8,16.8,44,16.8,60.8,0c16.8-16.8,16.8-44,0-60.8
	c-8.1-8.1-19-12.6-30.4-12.6C307.3,228.4,296.4,232.9,288.3,241z M332.1,284.8c-3.5,3.6-8.4,5.5-13.4,5.5c-10.4,0-18.9-8.4-19-18.8
	c0-5.1,2-9.9,5.6-13.5c3.5-3.6,8.4-5.5,13.4-5.5c10.4,0,18.9,8.4,19,18.8C337.7,276.4,335.7,281.2,332.1,284.8z"/>
<path class="st0" d="M207.9,131.1c-23.7,0-43,19.2-43,43s19.2,43,43,43s43-19.2,43-43c0-11.4-4.5-22.4-12.6-30.4
	C230.3,135.6,219.3,131.1,207.9,131.1z M221.3,187.5c-3.5,3.6-8.4,5.5-13.4,5.5c-5,0-9.8-2-13.4-5.5c-3.6-3.5-5.5-8.4-5.5-13.4
	c0-5,2-9.8,5.5-13.4c3.5-3.6,8.4-5.5,13.4-5.5c5,0,9.8,2,13.4,5.5C228.7,168.1,228.7,180.1,221.3,187.5L221.3,187.5z"/>
</svg>
