<?xml version="1.0" encoding="utf-8"?>
<!-- Generator: Adobe Illustrator 24.1.2, SVG Export Plug-In . SVG Version: 6.00 Build 0)  -->
<svg version="1.1" id="Capa_1" xmlns="http://www.w3.org/2000/svg" xmlns:xlink="http://www.w3.org/1999/xlink" x="0px" y="0px"
	 viewBox="0 0 484.5 456.7" style="enable-background:new 0 0 484.5 456.7;" xml:space="preserve">
<style type="text/css">
	.st0{fill:#23B123;}
</style>
<path class="st0" d="M449.9,164.3h-8.1c-11.7-30.6-31.6-58.3-58.3-80.7v-0.2c-4-13.9-1-28.8,8.7-44.3c5-7.8,5.3-17.8,0.7-25.9
	C388.4,5.1,379.9,0,370.7,0c-1.1,0-2.2,0.1-3.2,0.2c-37.1,4.6-59.3,21.5-72.1,37.2c-22.4-6.1-45.4-9.2-68.6-9.2
	c-60.3,0-117,20.6-159.8,58C23.8,124,0,174.4,0,228.1c0,13.9,1.6,27.8,4.9,41.4c0,0.2,0.1,0.5,0.2,0.7c0.1,0.2,0.2,0.4,0.2,0.6
	c3.4,13.8,8.4,27.1,14.9,39.8c10.7,23.3,23.6,42.7,38.1,57.7c20.6,21.2,24.1,48,24.6,58.8v6.3c0,0.5,0,0.9,0.1,1.4
	c1.3,12.4,11.7,21.8,24.1,21.8h74.5c13.3,0,24.2-10.9,24.2-24.2v-5c11.6,0.9,23.3,1.1,35,0.5v4.6c0,13.3,10.9,24.2,24.2,24.2h74.5
	c13.3,0,24.2-10.9,24.2-24.2v-18.2c0.1-4.3,1.8-24.7,21.1-42.3c0.9-0.8,1.9-1.6,2.8-2.4l0.2-0.2c0.2-0.2,0.5-0.4,0.7-0.6
	c25-22.4,43.7-49.7,54.5-79.5h7c19,0,34.5-15.5,34.5-34.5v-55.6C484.6,180,469.1,164.4,449.9,164.3z M460.4,254.4
	c0,5.8-4.7,10.5-10.5,10.5l0,0h-15.6c-5.3,0-10,3.4-11.5,8.5c-8.9,29-26.5,55.8-50.8,77.5l-0.2,0.2l-0.1,0.1l-2.7,2.4
	c-0.1,0.1-0.2,0.2-0.3,0.2c-26.2,23.8-28.9,51.8-29.1,59.8v18.7c0,0.1-0.1,0.2-0.2,0.2h-74.5c-0.1,0-0.2-0.1-0.2-0.2v-17.5
	c0-3.4-1.4-6.7-4-8.9c-2.2-2-5-3.1-8-3.1c-0.4,0-0.9,0-1.3,0.1c-8.2,0.9-16.4,1.3-24.7,1.3c-10.5,0-21-0.7-31.4-2.1
	c-3.4-0.5-6.9,0.6-9.5,2.9c-2.6,2.3-4.1,5.6-4.1,9v18.3c0,0.1-0.1,0.2-0.2,0.2H107c-0.1,0-0.2-0.1-0.2-0.2l0,0v-6.1
	c-0.6-13.4-4.8-47.4-31.4-74.7c-12.7-13.1-24.1-30.3-33.8-51.2c-0.1-0.2-0.1-0.3-0.2-0.4c-5.7-11.1-10.1-22.8-13.1-34.9
	c0-0.1-0.1-0.2-0.1-0.3v-0.2c-2.9-11.9-4.3-24-4.3-36.2c0-97,91-176,202.8-176c23.5,0,46.9,3.5,69.4,10.6c5.1,1.6,10.6-0.3,13.6-4.7
	c8.9-13.2,26.6-29.7,60.6-34c0.6-0.1,1.2,0.2,1.5,0.8c0.3,0.5,0.3,1.1-0.1,1.5c-13.3,21.2-17.2,43.2-11.4,63.6
	c0,0.1,0.1,0.3,0.1,0.4c0.1,3.5,1.7,6.8,4.5,9c27.2,22,46.9,49.9,57,80.7c1.6,4.9,6.2,8.3,11.4,8.3h16.5c5.8,0,10.5,4.7,10.5,10.5
	l0,0L460.4,254.4L460.4,254.4z"/>
<path class="st0" d="M239.8,216.1H213c-9.6,0-17.4-7.8-17.4-17.4c0-9.6,7.8-17.4,17.4-17.4h47.4c6.6,0,12-5.4,12-12s-5.4-12-12-12
	h-21.9v-16.1c0-6.6-5.4-12-12-12s-12,5.4-12,12v16.1h-1.4c-22.9,0-41.4,18.5-41.4,41.4s18.5,41.4,41.4,41.4h26.8
	c9.6,0,17.4,7.8,17.4,17.4c0,9.6-7.8,17.4-17.4,17.4h-48.2c-6.6,0-12,5.4-12,12s5.4,12,12,12h22.8v16.4c0,6.6,5.4,12,12,12
	s12-5.4,12-12v-16.4h2c22.9-0.2,41.2-18.9,41.1-41.8S262.7,215.9,239.8,216.1L239.8,216.1z"/>
</svg>
